<?xml version="1.0" encoding="UTF-8"?>
<svg xmlns="http://www.w3.org/2000/svg" viewBox="0 0 32 32" fill="white">
  <path d="M16 .396C7.164.396 0 7.56 0 16.396c0 2.884.756 5.69 2.192 8.16L.036 32l7.652-2.012a15.936 15.936 0 008.312 2.296c8.836 0 16-7.164 16-16S24.836.396 16 .396zm0 29.2a13.06 13.06 0 01-6.64-1.808l-.472-.28-4.54 1.192 1.212-4.428-.304-.456a13.08 13.08 0 01-2.04-7.02c0-7.22 5.88-13.1 13.1-13.1 7.22 0 13.1 5.88 13.1 13.1 0 7.22-5.88 13.1-13.1 13.1zm7.188-9.736c-.396-.2-2.34-1.152-2.704-1.284-.364-.132-.628-.2-.892.2-.264.396-1.02 1.284-1.252 1.548-.232.264-.464.3-.86.1-.396-.2-1.672-.616-3.184-1.964-1.176-1.048-1.972-2.34-2.204-2.736-.232-.396-.024-.612.176-.812.18-.18.396-.464.596-.696.2-.232.264-.396.396-.66.132-.264.068-.496-.032-.696-.1-.2-.892-2.148-1.224-2.94-.324-.78-.652-.672-.892-.684l-.76-.012c-.264 0-.696.1-1.06.496-.364.396-1.392 1.36-1.392 3.312s1.424 3.84 1.624 4.104c.2.264 2.804 4.28 6.796 6 .952.412 1.696.66 2.276.844.956.304 1.828.26 2.516.158.768-.116 2.34-.956 2.672-1.88.332-.924.332-1.716.232-1.88-.1-.164-.364-.264-.76-.464z"/>
</svg>
